<svg xmlns="http://www.w3.org/2000/svg" xmlns:xlink="http://www.w3.org/1999/xlink" version="1.1" preserveAspectRatio="none" x="0px" y="0px" viewBox="0 0 100 125"><defs><g id="a"><path fill="#000000" stroke="none" d=" M 84.4 25.55 Q 84.4 23.65 84.35 23.4 84.15 22.6 83.35 22.25 82.25 20.85 79.3 18.9 76.9 17.3 75.7 17.15 75.65 17.15 75.55 17.1 75.15 17 73.3 16.95 70.2 16.75 68.95 16.7 56.95 16.3 52.05 15.9 48.95 15.7 41.15 16.15 31.4 16.65 29.55 17.8 28.5 18.45 34.8 24.95 37.9 28.15 41.3 31.25 L 15.6 57.15 Q 14.45 58.3 14.7 59.05 14.75 59.3 15.65 60.3 L 33.5 78.15 Q 36.75 80.55 40.55 83 41.05 83.3 41.35 83.45 42 84 42.25 84.1 43 84.35 44.15 83.2 L 68.75 58.8 Q 70.45 60.2 75.45 64.15 79.95 67.7 81.5 68.5 83.15 69.75 83.5 69.25 84.6 67.35 85.15 57.65 85.55 49.8 85.35 46.7 85 41.85 84.55 29.8 84.5 27.85 84.4 25.55 M 81.55 24.8 Q 81.5 27.25 81.9 33.35 82.75 45.8 82.75 47 82.7 49.25 82.35 60 82.25 63.5 82.2 65.65 L 70.3 53.55 42.45 81.5 24.8 63.85 52.75 36 40.65 24.1 Q 42.75 24 46.25 23.9 57 23.55 59.3 23.55 60.55 23.6 72.95 24.4 79 24.75 81.55 24.8 M 65.45 19.4 Q 71.5 19.75 76.9 20.4 77.8 21.15 78.6 21.8 77.2 21.75 76.45 21.7 64.45 21.3 59.55 20.9 56.45 20.7 48.65 21.15 39.8 21.6 37.45 22.6 36.7 21.85 35.6 20.85 35 20.3 34.5 19.9 34.75 19 35.85 19 37.25 18.95 38.75 18.9 49.5 18.55 51.8 18.55 53.05 18.6 65.45 19.4 M 43.75 32.5 Q 47.05 35.45 48.6 36.5 L 23.1 62.15 Q 22.2 63.05 22.15 63.7 L 17.3 58.85 43.75 32.5 Z"/></g></defs><g transform="matrix( 1, 0, 0, 1, 0,0) "><use xlink:href="#a"/></g><text x="0" y="115" fill="#000000" font-size="5px" font-weight="bold" font-family="'Helvetica Neue', Helvetica, Arial-Unicode, Arial, Sans-serif">Created by Jozef Malacký</text><text x="0" y="120" fill="#000000" font-size="5px" font-weight="bold" font-family="'Helvetica Neue', Helvetica, Arial-Unicode, Arial, Sans-serif">from the Noun Project</text></svg>