<svg width="150" height="111" viewBox="0 0 150 111" fill="none" xmlns="http://www.w3.org/2000/svg">
<rect width="150" height="111" fill="white"/>
<path d="M88.7897 104.256C86.9663 102.426 86.091 100.215 86.164 97.6233C86.243 95.0314 87.1942 92.8206 89.0176 90.991L114.774 65.148H13.1172C10.534 65.148 8.36713 64.2698 6.61663 62.5134C4.87221 60.763 4 58.5919 4 56C4 53.4081 4.87221 51.2339 6.61663 49.4775C8.36713 47.7272 10.534 46.852 13.1172 46.852H114.774L88.7897 20.7803C86.9663 18.9507 86.0546 16.7765 86.0546 14.2578C86.0546 11.7451 86.9663 9.57399 88.7897 7.74439C90.6132 5.9148 92.78 5 95.2903 5C97.7944 5 99.9583 5.9148 101.782 7.74439L143.493 49.5964C144.404 50.5112 145.052 51.5022 145.435 52.5695C145.812 53.6368 146 54.7803 146 56C146 57.2197 145.812 58.3632 145.435 59.4305C145.052 60.4978 144.404 61.4888 143.493 62.4036L101.554 104.484C99.8823 106.161 97.7944 107 95.2903 107C92.78 107 90.6132 106.085 88.7897 104.256Z" fill="black"/>
</svg>
